<?xml version="1.0" encoding="UTF-8"?><svg id="_图层_2" xmlns="http://www.w3.org/2000/svg" viewBox="0 0 584.9618 354.8727"><g id="Layer_1"><path d="m454.3412,7.7227c2.38-4.83,7.6-7.05,12.69-7.71,5.17-.2,10.18,1.99,14.12,5.23,1.86,2.03,2.75,4.72,4.23,7.01-.61,3-.66,6.06-1.17,9.07-.71,3.55-2.34,6.82-3.19,10.33,5.69.51,11.35,1.35,17.04,1.87,3.26,1.3,6.39,3.52,7.7,6.91-.67.5-2.03,1.51-2.71,2.01,1.49,1.41,2.84,2.98,3.52,4.95-1.6,1.37-2.18,3.37-2.69,5.34.82-.37,2.47-1.1,3.29-1.47-.57.5-1.7,1.51-2.26,2.01,2.9,1.02,6.08.7,8.55-1.22,9.1-6.4,18.37-12.69,28.46-17.48,1.02-2.49,3.79-3.26,5.98-4.37,5.19-2.86,11.33-2.3,17.03-2.07,1.21.83,2.71,1.43,3.37,2.86,2.49,4.63,7,8.04,8.33,13.3,1.37,2.94-.34,5.99-1.34,8.74-1.85,2.24-4.28,3.93-6.38,5.93-.48-.14-1.44-.41-1.92-.55-.72.71-1.43,1.42-2.14,2.13-3.64-.51-5.2,3.06-6.33,5.83-1.11,2.88-1.88,5.98-1.78,9.08,2.41,2.94,6.39,3.59,9.81,4.76,6.36,2.48,13.13,6.14,15.47,13.03.03,1.81.07,3.66.93,5.31,1.06.39,2.64,1.64.54,1.81.02,2.1-.04,4.2-.05,6.29,1.86.39,2.01.9.47,1.54-.88,5.07-4.82,9.78-9.92,10.98-1.91.54-3.45,1.82-4.96,3.06-6.96,3.8-15.64,5.18-23.02,1.7,4.63.73,10.04,2.03,14.02-1.27-7.39,1.03-15.28.11-21.51-4.25,3.82,1.16,7.42,3.47,11.61,2.6-3.6-2.32-8.39-2.56-10.94-6.39l-.91,1.14c-2.6-1.65-5.4-3-7.67-5.1,1.49.5,2.99,1.02,4.49,1.56-.16-.47-.5-1.4-.67-1.87-1.84-1.13-3.64-2.32-5.54-3.33-.1,3.13-.19,6.29.22,9.41-1.47,5.62.32,11.28,1.29,16.8,2.86.22,5.72.3,8.59.35,7.1.06,14.03,2.29,20.25,5.6,2.89,1.68,4.27,4.87,6.3,7.39,2.57,3.41,2.24,7.86,2.56,11.89.09,6.66.9,13.37-.03,20.02-1.79,7.43-2.17,15.83-7.73,21.68-5.1,2.48-10.98,2.27-16.24,4.3-2.2.52-5.73,2.88-6.28-.8-.14.37-.42,1.1-.55,1.47-.57-.19-1.72-.58-2.29-.77-2.5-.19-4.98-.73-7.28-1.75,1.09-.54,2.18-1.06,3.29-1.57-3-.52-5.54-2.23-7.87-4.08-2.45-1.61-4.98-3.12-7.63-4.36-.22,7.32-1.91,14.51-2.01,21.84-.89,6.29-.82,12.68-2.26,18.89-1.23,1.81-1.02,4.04-1.23,6.12-2.28-1.06-1.2-4.03-1.8-6.04-.63,3.03-1.71,5.99-1.87,9.11-1.84,2.71-2.51,5.88-3.01,9.06.71-4.68,1.21-9.4.03-14.06-.73,4.9-1.12,9.89-2.32,14.7-.24-1.95-.33-3.89-.27-5.85-.73,1.59-1.06,3.46-2.51,4.61.02-.9.06-2.7.09-3.6-.96.05-1.92.1-2.86.16-1.58,5.82-1.26,12-1.69,17.98.34,3.62.6,7.24.95,10.86-.9-1.67-1.32-3.52-1.78-5.32-.65.79-1.3,1.59-1.93,2.39.07-.7.22-2.1.29-2.8.51.1,1.53.3,2.05.4-1.74-6.18.09-12.65-.85-18.96-1.12-1.34-1.32-3.14-1.84-4.73-.2,1.71-.36,3.43-.46,5.15-.73,2.62-.72,5.35-.85,8.05-.25,1.02-.51,2.04-.73,3.08.3.89.89,2.66,1.19,3.55-.74-.22-2.24-.67-2.98-.89,1.28.9,1.93,2.16,1.76,3.76l1.05-.32c-.08,2.71-.03,5.43-.02,8.16-.98-2.21-.95-4.72-1.55-7.02-1.05,2.75-.83,5.67.29,8.34l1.35-.58c-.05.78-.16,2.34-.21,3.12.47.83,1.41,2.48,1.89,3.31-.74,0-2.21-.01-2.95-.01.75.29,2.24.86,2.98,1.15.27,5.2,1.11,10.36,2.14,15.47.08-3.29-.27-6.69.98-9.81l.96.1c-.53-2.56-.61-5.17-.63-7.77l.64.13c.45,2.31,1.02,4.62,1.01,7,.08,4.71,1.36,9.32,1.21,14.06-.5-.23-1.52-.68-2.03-.9-.11,1.67-.05,3.36.82,4.87-.81,1.6-1.17,3.37-1.44,5.14-.51,1.72-1.1,3.43-1.76,5.11-1.16.77-.85,2.24-1.1,3.42-2.22,1.34-1.52,4.24-2.01,6.4-2.45,8.24-2.66,16.91-2.79,25.44-1.13-3.97-.99-8.15-1.25-12.23-.52.11-1.56.35-2.08.46.69-.48,1.38-.96,2.08-1.43.7-10.15,2.6-20.22,2.41-30.43.05-1.21-.31-2.29-1.08-3.23.24-.35.71-1.04.95-1.39-1.02-4.28-.6-8.77-1.61-13.02-.57-4.75-.89-9.56-.26-14.32-1.77-6.42-2.31-13.28-1.77-19.95-.06-1.41.51-2.68,1.37-3.76l-1.58-1.16c-.17-.6-.51-1.79-.67-2.38.86-.2,2.59-.6,3.45-.79-.77,0-2.31.01-3.09.01.08-4.95.25-9.98-.68-14.87-.31-.25-.92-.74-1.23-.99-.77-18.32,1.18-36.61,1.17-54.93-.12-5.28,1.27-10.61.21-15.84-4.27,2.08-8.55,4.22-12.38,7.04-1.76,5.78-1.52,11.91-2.73,17.8-1.1,4.72.89,9.39.73,14.14-1.23.16-2.45.32-3.67.49-.26,2.59-.07,5.32-1.28,7.72-.55.09-1.66.27-2.22.36-.69.9-.69,2.66-2.09,2.82-1.78-.97-3.5-2.03-5.22-3.09-.66,1.15-1.3,2.31-1.93,3.48-3.23-.46-3.59-3.82-4.86-6.19-1.29-.42-2.58-.81-3.8-1.35-1.42-1.8-2.42-3.87-3.76-5.72-.23-.88-.44-1.75-.65-2.62.91-4.19-2.68-7.84-2.33-11.98,1.65-6.35,5.11-11.98,7.67-17.97,2.35-6.21,5.37-12.29,6.13-18.97.37-2.02.13-4.49,2.28-5.56,1.62.62,3.3,1.06,4.96,1.55,2.76,1.5,4.74,4.26,7.57,5.79,5.52-4.04,10.48-8.8,15.15-13.77.91-.8,1.33-1.95,1.79-3.02-4.03-1.58-8.33-.94-12.51-.65,4.23-1.64,9.74-1.1,12.1-5.71-.11-1.23-.22-2.45-.31-3.67,1.16-.45,2.31-.91,3.48-1.35.23-.54.67-1.63.89-2.17,5.29.44,10.38-1.34,15.65-.86,1.06.7,2.15,1.38,3.25,2.06.26-1.93.41-3.87.61-5.8,2.9-8.63,2.68-17.9,3.55-26.88.92-6.45,2.54-12.99,1.42-19.52-5.01,1.16-10.01,5.58-10.03,10.97-1.35,2.44-2.44,5.03-4.22,7.2.68-.05,2.03-.16,2.71-.22-1.09,1.33-2.17,2.67-3.23,4.02l2.33-.24c-.99,2.83-2.68,6.58.14,8.93,2.24,1.52-1.72,2.65-2.24,3.99-.23-.61-.69-1.85-.91-2.47.05,4.25-4.91,4.81-7.82,6.39-9.65,4.92-19.01,10.42-28.81,15.06-2.1.61-2.36,2.96-2.98,4.72-2.91,9.21-5.59,18.56-10.07,27.16-3.87,9.03-9.62,17.22-17.03,23.69-.08-.22-.24-.65-.32-.86.63-2.41,2.93-3.87,4.53-5.65.88-1.15,1.82-2.27,2.8-3.35,2.21-4,5.18-7.57,6.86-11.86,3.53-8.77,6.91-17.61,9.61-26.67-2.31,4-3.94,8.34-5.36,12.72-.92,1.86-1.66,3.79-2.36,5.74-.23,2.2-1.51,3.65-3.79,3.74.46.19,1.39.56,1.86.75-.53,1.58-1.08,3.18-1.93,4.63-1.4,2.87-2.61,5.85-4.41,8.51-1.96,2.39-4.25,4.54-5.79,7.25-3.4,2.8-6.33,6.34-10.53,7.98-8.38,6.64-17.61,13.1-28.33,15.08,6.22-2.25,11.94-5.74,17.15-9.78,1.84-1.85,3.74-3.66,5.87-5.18,1.77-1.49,3.5-3.04,5.05-4.76-3.65,2.39-7.19,4.91-10.54,7.69-7.84,4.64-16.22,9.22-25.46,9.96-2.58-.02-5.54.22-7.76-1.29,5.87.38,11.32-2.29,16.49-4.74,19.53-11.34,34.48-30.24,40.94-51.88-5.19,2.08-9.38,5.87-13.93,8.99-3.11,2.12-7.07,1.66-10.62,1.43-4.15-3.34-4.23-9.44-3.82-14.34.6-.42,1.8-1.25,2.4-1.66-.04-1.51-.11-3.03-.19-4.53,4.15-2.09,9.01-2.51,12.9-5.2,5.09-3.49,9.14-8.22,13.58-12.46,3.65-3.67,7.64-7.04,10.69-11.26-5.54,2.41-9.4,8.33-15.76,8.74-1.89.35-3.51-.86-5.19-1.47-.06-.65-.16-1.95-.21-2.6-.33-.32-.98-.95-1.3-1.27.56-2.43.73-4.95.31-7.41.05-.51.14-1.53.18-2.04,1.72-.75,2.75-2.06,2.86-3.95,2.94-1.49,6.39-1.49,9.26-3.15,4.57-2.4,9.34-4.43,13.81-7.01,1.36-1.9,1.43-4.51,2.07-6.75-4.34,1.61-8.81,3.29-12.09,6.71-4.3,4.4-11.78,6.45-17.16,2.82-5.5-4.89-8.79-12.43-7.96-19.81.08-1.84.22-3.67.48-5.49-.48-1.82-.89-3.64-1.28-5.48,7.83-.16,15.91-.29,23.34-3.24,6.36-2.57,12.87-4.72,19.33-7.05.75-8.82,3.09-17.8,1.34-26.62-3.07-.84-2.11-4.05-2.38-6.43Zm78.18,48.14c-3.27,2.37-6.74,4.53-9.6,7.42,1.5.8,2.99,1.65,4.46,2.53,1.09,1.77,2.39,3.39,3.59,5.09-.53,1.11-1.53,2.12-1.42,3.44-.08,4.67-.75,9.29-.85,13.95.41-.13,1.23-.38,1.64-.51,1.53,3.5,1.41,7.29,1.43,11.03,2.21,3.93,6.97,5.24,11.14,5.78,6.44.38,13.35-1.66,17.93-6.34,1.69-1.58-.38-3.47-2.02-3.67-6.86-1.83-14.17-4.45-18.35-10.57-2.49-3.03-1.97-7.12-2.5-10.74.43-8.95,6.88-15.89,8.83-24.39-5.29,1.02-9.85,4.07-14.28,6.98Zm-28.64.25l-.12,3c-8.68,1.34-17.89.19-26.02,4.13-3.31,1-5.05,4.18-6.14,7.21,5.17-1.79,10.54-3.1,16.06-2.58,2.15.9,4.27,1.92,6.54,2.55-1.32,1.61-3.42,1.68-5.32,1.75.54.3,1.61.91,2.14,1.21-.76.5-2.28,1.49-3.04,1.98,1.27.29,2.56.58,3.85.86-.65.49-1.96,1.46-2.61,1.95.47.75.94,1.5,1.42,2.26-.55.23-1.65.69-2.21.93.45.84.9,1.68,1.35,2.53-.94,0-2.82-.01-3.76-.01l.95,1.72c-.37-.17-1.11-.52-1.48-.69.11.41.34,1.24.46,1.65.66.71,1.32,1.42,1.99,2.14.8.49,1.61.98,2.41,1.48-2.12-.45-4.16-1.28-6.32-1.49-6.38,2.1-13.05,3.69-18.57,7.73-.73,2.62-1.52,5.23-2.26,7.85,3.98-1.85,7.86-3.92,11.73-6,3.53-1.9,7.43-3.37,10.19-6.4,1.33.02,2.65.08,3.99.18,5.71-3.18,8.63-9.2,11.98-14.5,1.7-2.91,3.85-5.53,5.4-8.53-2.8-.49-5.47.51-8.11,1.25-.14-1.1-1.13-2.46.14-3.29,2.63-2.48,5.54-4.76,7.28-8.02,1.16-1.1,2.14-2.37,2.68-3.9-1.56.3-3.08.66-4.6,1.05Zm-24.25,90.4c2.08-.47,4.23-1.05,5.94-2.39.12-1.37.17-2.75.14-4.13-2.43,1.75-4.43,4.03-6.08,6.52Zm39.38-1.9c5.34.25,10.7.2,16.03-.18-.21-.26-.65-.79-.86-1.05-5.07-1-10.19.38-15.17,1.23Zm-44.94,14.35c3.73-2.42,8.08-4.02,11.21-7.29-4.66.08-8.66,3.63-11.21,7.29Zm44.87-3.77c-2.18,8.06-2.34,16.44-2.21,24.74,6.63,4.44,16.03,4.37,22.54-.18,2.61-5.99,2.41-12.89,2.23-19.35.11-1.95-.95-3.61-1.77-5.28-6.77-2.33-13.96-1.41-20.79.07Zm-22.81,85.49c-.15,2.17-.41,4.33-.43,6.51,2.08.7,2.93-.94,3.69-2.45-.55-1.29-.73-2.64-.55-4.03l-2.71-.03Zm-1.21,55.81c.04,1.59-.06,4.41,1.36,5.25.39-1.65.15-4.35-1.36-5.25Z" style="fill:#fdfdfd; stroke-width:0px;"/><path d="m133.0912,21.3727c2.75-1.84,5.97-.37,8.98-1.04,1.21,1.42,2.46,2.85,4.07,3.84,7.29,4.52,14.49,10.09,18.62,17.74,2.32,2.33,1.93,5.61,1.58,8.58-1.45,2.99-3.64,5.5-5.36,8.33,7,7.61,13.79,15.45,21.33,22.53,1.24,2.19,2.84,4.14,4.67,5.87.51-.48,1.53-1.45,2.04-1.94,1.37.56,2.74,1.14,4.09,1.77.42-.12,1.27-.37,1.69-.49,2.73,2.15,6.07,3.31,9.28,4.56-2.1,1.48-4.03,3.18-5.89,4.94,1.62.09,3.24.17,4.86.25.28,1.03.57,2.05.88,3.08-1.98.75-3.88,1.67-5.68,2.78.42.66,1.25,1.98,1.67,2.64,3.82-.5,7.65-1.1,11.52-.89,1.1-3.1,1.8-6.32,2.49-9.52,1.69-8.05,4.5-16.49,1.45-24.58,1.5-.59,3.02-1.13,4.55-1.66,3.29-.61,6.59-1.36,9.97-1.31,3.74,1.52,7.02,4.07,9.75,7.02,2.71,2.86,3.7,6.76,5.61,10.11.72,2.53,1.19,5.78-.66,7.95-1.42,1.94-2.95,3.85-3.76,6.15,3.05-1.3,5.92-2.96,8.87-4.47,1.46-10.91,2.74-21.86,4.45-32.74.43-2.55.52-5.13.37-7.7-5.23-1.44-4.27-8.05-4.1-12.25,3.77-2.37,7.47-6.52,12.36-5.26,5.08,1.29,10.17,3.33,14.18,6.78,4.22,4.1,3.63,10.59,3.06,15.93-1.95,4.23-5.11,8.17-5.21,13.03,1.5,6.49,8.58,8.93,14.3,10.39.34,1.5.06,3.24,1.25,4.44-.74,1.24-1.14,2.6-1.19,4.06.78-.09,2.35-.29,3.13-.39,4.7-7.95,8.98-16.15,12.86-24.53,3.04-7.17,5.8-14.47,9.5-21.33,3.53-2.51,8.05-2.75,11.55-5.29,1.44-1.99,3.77-.97,5.76-.62,3.19,5.93,9.96,8.35,14.11,13.37,1.47,3.42-.35,7.25.04,10.86-.02,4.42-3.9,6.7-6.86,9.25-4.64,4.76-7.01,11.1-10.43,16.69-1.25,2.06-2.28,4.24-2.88,6.58,14.8-5.52,31.18-9.62,46.82-5.27,6.46,2.72,13.43,5.47,17.81,11.24,2.72,2.88,3.54,6.87,5.8,10.05,1.87,2.48,1.63,5.75,2.24,8.65,1.32,5.88.08,11.87-.34,17.78-2.52,8.76-6.44,17.02-10.24,25.29-1.19,1.98-2.45,3.97-2.92,6.27l-.67-.03c-.04.75-.13,2.25-.18,2.99-.55.02-1.65.04-2.2.05.34.36,1,1.09,1.33,1.45-.95,1.2-.88,3.79-2.91,3.64-.05,3.44-4.02,4.92-4.44,8.3-1.81,2.24-3.65,4.75-3.67,7.76-.33-.03-1.01-.11-1.35-.14.03,2.89-2.33,4.5-4.03,6.43-.89,1.3-1.8,2.58-2.75,3.84-1.63.82-3.13,1.84-4.6,2.9-.61,1.77-1.1,1.44-1.47-.98-2.09,1.79-3.4,4.21-4.1,6.83-3.1.03-6.34-2.34-9.18-.23-1.33,1.2-2.81-.18-4.11-.59-.86.01-2.59.02-3.45.03v-2.43c-2.53.77-5.14,1.26-7.79,1.28-1.06-2.42-1.26-5.02-1.16-7.62-1.23-.85-2.31-1.87-3.26-3.02-1.02-1.04-2.06-2.06-3.12-3.05.49-.41,1.45-1.24,1.94-1.65-.65-.84-1.29-1.68-1.92-2.52.69-.06,2.07-.19,2.76-.26-1.01-1.54-2.01-3.08-2.95-4.65-2.39,3.31-4.45,6.83-6.81,10.16-3.02,5.8-5.44,11.9-8.09,17.88-1.03,4.98-4.21,9.07-6.26,13.63-1.63,3.93-4.33,7.26-6.31,11-2.62,5.06-6.34,9.71-11.27,12.66-5.65,2.99-11.89,4.67-18.08,6.14,2.59-1.23,5.57-1.74,7.93-3.39,1.7-2.03,4.44-2.37,6.9-2.73-3.74-1.78-7.68.72-11.02,2.31-.76-.16-1.51-.33-2.26-.5,5.21-.84,9.41-5.93,14.92-4.32-.62-.26-1.87-.77-2.49-1.03,4.07-2.93,8.22-6.84,9.6-11.77-.35-.26-1.05-.79-1.4-1.05.15.85.46,2.55.61,3.4-3.16,2.73-5.47,6.55-9.38,8.32-3.64,1.95-7.44,3.71-11.52,4.51-3.71.72-7.12,2.76-10.99,2.66-.13.52-.4,1.56-.53,2.09.81-.11,2.45-.31,3.27-.41-.94.66-1.47,1.62-1.7,2.74l-.4-.21.28-1.78c-.85.32-2.53.97-3.37,1.3-.02,1.02-.01,2.05.03,3.09-3.11.84-6.13-2.78-8.82-.21l-.84-.13-.63.07c.43,1.36,1.97,1.82,2.92,2.76-1.71-.62-3.34-1.42-4.98-2.18l.29-.55c.43-.74.33-1.41-.31-2.02-.83.35-2.48,1.06-3.31,1.42-2.11,1.39-4.56,2.15-6.64,3.58-1.72,1.06-3.46,2.28-5.56,2.38,1.03-1.02,2.09-2.02,3.17-2.98,2.74-.48,5.25-1.66,7.14-3.73,1.16-.66,2.32-1.31,3.46-1.99.96-.57,1.92-1.15,2.85-1.79-1.21.25-2.38.6-3.51,1.05-3.54,1.8-7.07,4.09-11.23,3.55.02.58.05,1.76.06,2.35-1.23-.29-2.45-.54-3.68-.8-.14,1.88-1.43,3.01-3.12,3.57-1.55.94-3.1,1.87-4.65,2.79-.16-2.17,1.38-3.37,2.89-4.53.53.18,1.6.53,2.13.71.25-1.01.5-2.02.75-3.02-.85.47-1.68.96-2.52,1.45-2.25-.15-3.32,1.52-4.06,3.36-.59.04-1.78.12-2.37.16-.85.67-1.39,1.53-1.64,2.59-2.69-.67-4.39,1.89-6.79,2.53-.1.5-.3,1.52-.41,2.03.43-.28,1.28-.85,1.71-1.13,1.27-1.02,2.54-2.05,3.88-2.98.9,2.31-1.11,3.24-2.57,4.05-3.13,1.74-6.59,2.74-9.87,4.16l-.07-.63c.42-.06,1.26-.19,1.68-.26-.05-.39-.17-1.18-.23-1.57-6.87,1.32-13.92.74-20.7-.75-1.99-.45-4.02-.61-6.05-.56,4.96-1.3,10.22-.25,15.31-.66l-1.55-1.45c1.74-.03,5.22-.07,6.96-.1l-3.34,1.81c1.41-.23,2.83-.43,4.26-.62l-.06-1.18,1.96.64c-.06-.46-.19-1.37-.26-1.83,1.77-.2,3.55-.35,5.32-.47.42-.32,1.25-.95,1.67-1.26,5.09-2.69,10.24-5.35,14.92-8.73l2.64.28c-.34-.38-1.03-1.15-1.37-1.54,9.48-4.8,18.6-10.43,28.7-13.88,7.22-2.88,14.75-5.04,21.72-8.51,2.17-.86,2.64-3.31,3.39-5.24l-4.04.36c1.98-1.65,3.76-3.88,6.4-4.43-.63-1.96,1.06-3.44,1.97-4.94,1.7-2.1,2.79-4.6,4.43-6.74-.79,2.02-1.9,3.88-2.86,5.82.77.84,1.55,1.66,2.35,2.48l-.1-1.86c.61.1,1.84.29,2.45.38,3.65-4.63,5.82-10.15,8.82-15.16.62-1.08.7-2.17.24-3.29-1.46-.28-2.93.44-4.41.14.03.43.09,1.3.11,1.73l-.64-1.68,1.12-.43.59-.52c-.07-.27-.2-.8-.27-1.06.14-1.56.59-3.07,1.01-4.57l-.02,3.32,2.82-1.89.14-.23c.18.77.55,2.32.73,3.09.33,0,.99.01,1.31.01.88-2.01,1.62-4.09,2.86-5.92,2.93-4.77,5.31-9.91,8.85-14.28.68-1.01,1.37-2.02,2.08-3.01,1.23-3.11,3.21-5.81,4.88-8.68-1.03-.86-2.29-1.46-2.94-2.68-.55.06-1.64.19-2.19.26.33-.38.98-1.14,1.31-1.52.42.15,1.25.44,1.66.59.54-.63,1.62-1.9,2.16-2.54-.8.17-2.42.5-3.23.66.88-1.25,1.75-2.52,2.59-3.8-.83-3.08-1.33-6.23-2.08-9.33-4.78,3.37-3.39,10.19-7.62,13.89-1.74,1.94-2.15,4.62-3.15,6.96-.91-1.86-.8-3.71.21-5.47-1.66,2.22-2.92,4.7-4.48,6.99-1.71-.38-2.79-1.41-3.23-3.08-1.84,3.06-2.55,6.78-5.17,9.35l-.08-2.11c-1.45.12-2.9.23-4.35.32,2.19-2.65.58-5.91.63-8.93l-1.77-.12c1.2-1.44,2.63-2.64,4.19-3.68.05-.97-.09-1.93-.17-2.88,1.13-1.84,2.26-3.74,4-5.07,2.33-4.58,3.79-9.56,6.58-13.89,1.72-3.92,4.02-7.67,4.87-11.9-4.66-.64-7,4.68-11.44,5.06.23-1.46.49-2.92.74-4.37-1.09-.58-2.18-1.16-3.26-1.72-1.15-2.76-1.04-5.74-.89-8.65-1.43.81-2.88,1.6-4.33,2.36l.17.85-.95-.17c-.34.7-1.01,2.09-1.35,2.79-.97-2.82,1.99-4.46,3.27-6.51,1.48-1.22.67-3.19.73-4.81.75-1.08,1.51-2.16,2.29-3.21-.42-.08-1.27-.22-1.69-.29.5-1.85,1.07-3.68,1.63-5.51,3.42-2,5.52-5.53,7.49-8.84,8.39-12.62,15.52-26.12,21.02-40.25.77-1.88,1.32-3.85,1.6-5.87-3.82,1.2-5.36,5.41-7.15,8.62-4.53,10.48-9.29,20.89-14.69,30.95-.25,1.5-.22,3.03-.31,4.55-1.22.49-2.41,1-3.61,1.53-.38,1.83-1.04,3.58-1.83,5.28-2.36.56-3.11,2.97-4.44,4.68-1.37,1.98-3.22,3.83-3.4,6.36-1.16.98-2.37,1.96-3.15,3.29-2.52,2.98-5.39,5.62-8.04,8.48-.66,1.47-1.43,2.88-2.14,4.32,2.99-.62,5.06-2.97,7.22-4.93,2.93-2.9,6.03-5.62,8.74-8.73-.28,2.28-.5,4.69-2.56,6.08-1.48,2.07-2.95,4.23-5.16,5.59.22.46.68,1.37.9,1.83-2.12,2.04-3.95,4.36-5.31,6.98-1.37,1.18-2.87,2.19-4.18,3.44-.77,2.08-.94,4.31-1.1,6.51-.87,15.41-.28,30.95,1.66,46.28,1.45,5.02,2.03,10.2,2.75,15.37-1.76.31-3.88-.26-5.35.96-.55,1.31-.91,2.69-1.31,4.05-1.92.79-3.94,1.55-4.96,3.52-1.12-.99-2.22-1.99-3.31-3-2.2,2.74-6,.95-7.71-1.41-2.05-2.57-3.53-5.66-6.29-7.58-6.65-4.71-12.56-11.17-20.94-12.64-4.06,3.1-9.04,5.63-14.27,4.19-2.96-2.77-4.17-6.87-5.46-10.6.47-.82.96-1.62,1.49-2.41-.54-.26-1.62-.79-2.16-1.05-.94.1-1.89.21-2.83.33.91-1.69,1.91-3.32,2.94-4.93-.07-.71-.22-2.15-.3-2.87,8.38-3.57,14.44-10.62,21.47-16.15,8.24-6.52,16.15-13.46,24.57-19.75.2-4.53.59-9.04,1.06-13.55-8.58,4.25-14.53,12.77-23.99,15.35-3.98,1.18-7.84-1.19-10.7-3.72-3.75-5.37-5.49-11.92-6.46-18.3-.8-2.7,1.73-4.47,2.95-6.52,1.59-2.79,1.99-6.04,2.79-9.09-1.94.42-3.86.89-5.8,1.31-.09.47-.26,1.41-.35,1.89-3.34,1.08-6.92.76-10.38.96-.01.45-.03,1.36-.05,1.82,2.16.71,4.38,1.17,6.66,1.26-4.54.26-9.09,1.51-13.63.86-.35.74-1.06,2.23-1.41,2.97-1.15-2.96-6.82-2.29-7.05.89-.76.12-2.3.38-3.06.51l.53-1.4c-4.44,0-8.88.25-13.31.53-7.54,2.94-15.74,3.34-23.47,5.42-.53.1-1.6.28-2.13.37-5.43,6.06-7.61,14.01-10.86,21.28-2.01,4.37-3.14,9.06-3.98,13.78l3-.26c-1.35,1.09-2.71,2.16-4,3.32,3.22-1.51,6.3-3.44,9.85-4.07l-3.08-1.56c2.67-.08,6.83,1.35,8.29-1.83.48.14,1.44.43,1.93.57-.22-.53-.64-1.6-.85-2.14,1.84-.37,3.79-.96,5.14.89.14-.62.42-1.86.56-2.49,7.9-2.68,16.81-2.86,24.46.78,4.82,2.46,9.84,5.29,12.61,10.15,3.42,4.87,2.82,11.09,2.72,16.71-1.73,3.4-4.39,5.99-7.53,8.1-1.93,1.96-3.66,4.15-6.04,5.6-1.91-.11-4.22-1.02-5.66.73-4.83,4.45-10.71,7.7-14.98,12.74,4.42,1.49,8.5-1.34,12.38-3.04-.05-.49-.14-1.46-.19-1.95.36.87.73,1.75,1.1,2.64,8.25-3.26,15.3-8.71,23.22-12.58-4.11,2.62-7.77,5.87-11.34,9.17-1.1.97-1.95,2.17-2.46,3.55.46-.27,1.38-.82,1.84-1.1,1.78-.6,3.57-1.2,5.39-1.68-1.95,2.09-4.16,3.91-6.21,5.9,1.03-.29,3.07-.88,4.09-1.18-2.57,2.84-5.73,5.14-7.85,8.38,2.93-.79,5.69-2.09,8.55-3.07-2.84,3.07-6.93,4.73-9.44,8.11,1.93.4,3.9.58,5.87.74-2.42,1.88-4.97,3.78-8.09,4.21-6.4,1.29-12.78,2.62-19.17,3.94-8.13,1.1-16.22,2.8-23.83,5.92-1.11.66-1.67,2.16-2.88,2.58-.97-.77.13-1.31.68-1.85l-.29-.86c3.63-1.71,8.05-2.25,10.67-5.58-3.37.17-6.92.88-10.03-.89-2.07-3.03-1.96-6.73-2.23-10.22,1.43-2.31,1.15-5.74-2.38-5.29,1.3-.26,2.58.08,3.85.33-.17-2.31-.87-4.51-1.41-6.74.47.06,1.4.18,1.87.25.17-.48.5-1.44.67-1.92-.21.98-.41,1.97-.61,2.96h1.56c-1.25-2.81,1.18-3.63,3.31-4.44.51-1.22.93-2.57,2.19-3.21,3.6-2.31,6.91-5.13,9.42-8.62,3.29-4.61,6.82-9.12,9.04-14.37-5.23,1.52-10,4.23-15.06,6.23-8.44,3.19-14.74,10.12-19.76,17.37-1.98,2.29-1.34,5.42-1.61,8.19-1.9,4.96.18,10.08.62,15.08-.36,2.11-1.03,4.16-1.52,6.24-3.75-.34-5.5,2.97-5.65,6.23-1.8.38-3.01,1.5-3.47,3.31-1.75-1.24-3.75-2.07-5.51-.25-2.06-1.88-3.67-4.46-6.55-5.14-5.44-6.16-7.66-14.62-13.81-20.29-.53-4.15,1.25-7.96,1.96-11.94.99-6.72,3.44-13.21,3.36-20.07.48-6.88-.38-14.02-3.9-20.05l-2.12-1.52c2.81-2.58,6.98-2.44,10.55-2.95,1.96-4.02,4.32-7.85,5.78-12.09-3.08.37-6.21.71-9.12,1.88-3.17-.17-6.21.77-9.09,1.98-.17-.16-.52-.48-.69-.64-9.27,4.59-19.81,6.25-28.92,11.28-3.29,1.75-4.47,5.63-7.52,7.63-4.19,2.77-5.69,8.11-10.06,10.69-5.05,3.41-11.69.72-15.72-3.04-2.59-3.46-4.4-7.44-6.23-11.33-1.75-3.37-.95-7.2-1.39-10.81-.9-3.66,1.51-7.3.3-10.94-1.34-3.81-1.99-7.94-.94-11.91,2.84-2.17,5.77-4.44,9.29-5.33,7.18-1.55,13.99-4.8,19.85-9.2,3.37-2.36,5.52-5.94,8.5-8.72.34-.24,1.04-.72,1.38-.97-.25,1.28-.51,2.56-.8,3.83,1.07,4.31.05,8.68-.17,13.01,12.41-1.89,24.21-6.49,36.44-9.23,11.31-3.36,22.83-5.87,34.39-8.2,2.45-11.76,5.69-23.47,6.46-35.48,2.22-6.08,3.11-12.57,4.28-18.91.66-2.96.06-6.52-2.52-8.37-2.23-1.25-4.46.44-6.53,1.19,1.03-4.85,3.6-9.24,6.76-13,6,.01,9.88-5.09,15.24-6.93Zm25.24,40.85c2.32,2.97,4.67,5.92,7.15,8.74,4.45,5.31,8.05,11.29,12.56,16.54.93.88,3.81,2.24,3.85.01-.42-1.43-1.72-2.35-2.61-3.46-6.96-7.34-12.51-15.89-19.4-23.27-.39.36-1.16,1.08-1.55,1.44Zm-2.55,4.21c-1.75,4.56-2.53,9.39-3.79,14.09-1.42,4.97-3.38,9.76-4.89,14.7,6.96-1.02,13.85-2.43,20.78-3.67-2.12-9.1-7.21-17.25-12.1-25.12Zm180.41,37.12c-9.64,2.77-18.65,8.94-23.09,18.15,2.65.14,5.14,1.01,7.37,2.42.27,1.62,1.34,3.42,0,4.85-2.08,2.95-3.67,6.19-4.59,9.7-.73-1.27-1.45-2.55-2.02-3.89-.18.54-.35,1.09-.52,1.64-1.57,2.55-2.94,5.24-3.88,8.1,2.82-1.38,3.98-4.51,4.67-7.37.57,1.17,1.14,2.33,1.69,3.51,4.85-3.96,8.49-9.1,12.78-13.61,1.01-.85,1.04-2.2,1.32-3.39,1.88-1.96,3.3-4.56,5.92-5.64,7.79-2.38,17.72-1.81,22.92,5.31-.12,4.06-.31,8.52-3.59,11.41-.57.09-1.7.27-2.26.36-7.7,10.77-13.38,22.77-19.6,34.4,3.03,3.94,6.46,8.34,11.85,8.74,3.16-3.55,5.32-7.83,7.91-11.78,5.23-9.37,11.36-18.46,14.06-28.98,2.64-8.35,4.92-17.34,2.87-26.08-.86-4.27-4.96-6.79-8.75-8.21-8.04-2.88-17.03-2.3-25.06.36Zm-244.35,7.47c5.25-1.01,10.49-2.11,15.76-3.04.05-.61.14-1.84.19-2.46-5.44,1.29-11.34,2.12-15.95,5.5Zm178.37-1.29c-1.25,4.17-1.73,8.59-2.1,12.92,6.07-4.5,10.9-10.5,14.79-16.94-4.54-.66-9.19,1.24-12.69,4.02Zm52.41,26.6c-1.9,2.44-4.15,4.58-5.89,7.12.19,2.69,1.2,5.25,2.1,7.77,2.05-.96,2.69-3.54,3.89-5.32,2.65-5.73,6.6-10.85,8.32-16.98-3.75,1.2-6,4.56-8.42,7.41Zm-225.85,5.99c-4.32,3.91-8.16,8.34-11.48,13.13,3.81.65,6.79,3.11,9.82,5.31,1.82-4.3,2.93-8.86,3.89-13.41.72-2.31,1.37-4.64,1.71-7.03-1.41.45-2.87.91-3.94,2Zm215.22,5.92c.63,1.94,1.39,3.84,1.71,5.87l.73-.21c.2.75.59,2.24.79,2.99,3.47-2.73-.12-7.12-.21-10.52-1.02.61-2.03,1.23-3.02,1.87Zm-212.04,16.91c-.58-.69-1.16-1.38-1.74-2.06.32-2.24.87-4.43,1.47-6.6-.17.08-.51.25-.68.34-.7,2.66-1.87,5.17-2.51,7.85.78.51,1.55,1.02,2.33,1.54-1.03,2.96,1.02,5.7,1.76,8.46,1.63-1.35,3.21-2.77,4.84-4.12,1.01-4.09,2.52-8.23,1.97-12.49-1.05,1.25-1.22,2.88-1.38,4.45-1.42,2.43-2.57,4.99-3.81,7.52.48-4.94,1.64-9.79,2.24-14.71-2.35,2.79-3.64,6.31-4.49,9.82Zm140.21,6.27c-2.74,2.85-5.05,6.16-8.29,8.59-.37-.09-1.11-.29-1.48-.38l.02.9c-1.38,1.03-2.63,2.21-3.65,3.59,4.75,2.93,9.71,5.46,14.77,7.8.56-1.47,1.11-2.95,1.74-4.4-.23-6.52.59-12.99.54-19.5-1.2,1.15-2.39,2.31-3.65,3.4Zm89.79,3.13c.85,3.01,2.97,6.18,6.2,6.86-2.15-2.22-4.2-4.51-6.2-6.86Zm-14.13,10.68c-.08.61-.24,1.82-.32,2.43-1.03.25-2.05.51-3.08.76-.39,1.16-.78,2.31-1.16,3.48l-1.73-.23,1.2,2.52c-.76-.08-2.29-.22-3.05-.3.39.57,1.19,1.7,1.59,2.26-2.09,2.28-4.34,4.72-4.2,8.05-.6-.4-1.8-1.22-2.4-1.62.52.47,1.57,1.41,2.09,1.88-.72.92-1.43,1.85-2.14,2.78-.39,1.84.35,4.83-2.28,5.2.04.27.12.8.16,1.06-3.21.65-.35,4.86-3.56,5.66-.02,2.09-.1,4.19-.29,6.29-1.03.57-2.06,1.15-3.08,1.74.48,1.75-.46,3.06-1.67,4.2-.37,1.9-2.6,2.89-2.24,5.01.6-.2,1.79-.6,2.38-.8,2.08-3.34,4.29-6.61,5.81-10.26,1.15-1.67,2.16-3.45,3-5.3.36-.21,1.08-.62,1.45-.83-.02-3.53,2.01-6.52,3.36-9.63.95,0,1.9.01,2.85.01l-2.6-.64c2.18-4.32,3.8-8.91,6.33-13.05,2-4.01,4.71-7.73,5.76-12.15-.73.49-1.46.98-2.18,1.48Zm-91.29,7.13c4.07,2.74,8.26,5.32,12.65,7.52-3.21-3.83-7.93-6.13-12.65-7.52Zm52.6,30.77c-1.33,1.83-2.26,3.88-1.41,6.1l-1.38-.67.25,1.43c-.46-.02-1.36-.07-1.81-.1.54,1.45.86,2.96.97,4.51.65-.97,1.32-1.93,2-2.87,1.02-.99,1.96-2.06,2.93-3.11-.22-1.85-.67-3.65-1.55-5.29Zm-30.5,30.96c.17.59.51,1.76.68,2.35-.21.32-.63.97-.84,1.29l-1.56.37c-.08.49-.25,1.47-.33,1.96,2.96-.89,6.99.09,9.25-2.39l1.6.18c-.45-.77-.9-1.54-1.35-2.3-1.86.69-3.76,1.39-5.29,2.69-.29-1.58-1.4-2.79-2.16-4.15Zm2.78,6.3c.35,1.55,3.24,1.51,3.68.02-.3-1.63-3.18-1.4-3.68-.02Z" style="fill:#fdfdfd; stroke-width:0px;"/><path d="m427.8912,178.6027c.82,3.31-3.12,4.27-5.1,5.99l-.29-1.52c.58-.1,1.75-.29,2.34-.38.96-1.41,1.91-2.82,3.05-4.09Z" style="fill:#fdfdfd; stroke-width:0px;"/><path d="m497.6012,252.2127l2.28-1.24c-.07,1.59-1.94,3.59-.28,4.87.45.2,1.33.58,1.77.77l-.85,1.73c-.57-.65-1.09-.71-1.59-.19l-.16.61-1.57,1.27c.17-1.43.38-2.87.61-4.29-.1-1.18-.17-2.36-.21-3.53Z" style="fill:#fdfdfd; stroke-width:0px;"/><path d="m491.5812,258.1227c-1.03-.96-1.84-5.34-.05-6.02.8,1.86.11,4.05.05,6.02Z" style="fill:#fdfdfd; stroke-width:0px;"/><path d="m215.9012,273.1027c2.97-2.39,6.31-4.28,9.29-6.66-.81,2.77-3.75,3.67-5.95,5.06-.78,1.2-1.87,1.89-3.34,1.6Z" style="fill:#fdfdfd; stroke-width:0px;"/><path d="m212.7112,269.6727c.51-.92,3.06-1.64,3.3-.41-.64.77-3.19,2.15-3.3.41Z" style="fill:#fdfdfd; stroke-width:0px;"/><path d="m506.2512,274.3327c-.4-1.98-.75-3.97.01-5.92.66,8.96.8,17.96,1.81,26.9-.3,4.67-.06,9.37-.56,14.02-.79,2.73-1.42,5.52-2.14,8.27-.3-2.86.9-5.58.99-8.41.26-5.62.53-11.23.84-16.84-.74-5.98-.73-12-.95-18.02Z" style="fill:#fdfdfd; stroke-width:0px;"/><path d="m497.3912,270.2027c.91-.18,1.83-.36,2.76-.54-.52.39-1.55,1.17-2.07,1.56.68.98,1.37,1.97,2.08,2.95.06.42.19,1.27.26,1.69l-1.4.07c.69,6.47,1.24,12.96,2.48,19.36.75,6.71-.61,13.41-1.37,20.05l-1.44,1.68c1.91-13.76-.51-27.51-.3-41.29l1.84-.05c-.94-1.84-1.91-3.64-2.84-5.48Z" style="fill:#fdfdfd; stroke-width:0px;"/><path d="m178.7012,273.2127c1.07-1.35,4.04-.66,5.71-.36l-.01.36c-1.82.46-3.91.57-5.7,0Z" style="fill:#fdfdfd; stroke-width:0px;"/><path d="m492.2712,281.7027c.79-1.46,1.56-2.93,2.37-4.38-.02.82-.06,2.47-.08,3.29.51.85,1.01,1.72,1.5,2.59l-1.93-1.62c-.07,3.37,1.48,7.48-1.07,10.27-.2-1.95-.39-3.89-.55-5.83l.83-.12c.08-1.02.25-3.07.33-4.09l-1.4-.11Z" style="fill:#fdfdfd; stroke-width:0px;"/></g></svg>