<?xml version="1.0" encoding="UTF-8"?><svg id="_图层_2" xmlns="http://www.w3.org/2000/svg" viewBox="0 0 114.2681 31.0761"><g id="_图层_1-2"><path d="m12.4269.0439c.1449-.0143.2887-.0434.4353-.0406,1.8305-.0022,3.661.0088,5.491-.0027,1.3129-.0143,2.6582.2536,3.7856.9518.5643.3935,1.1675.7662,1.5764,1.3343.8453.9545,1.3201,2.1867,1.4886,3.4404.073.3392.0642.6949.1866,1.0231.5269.1076,1.061.1855,1.5736.3546.589.1877,1.1378.4803,1.6543.8167,1.2092.7673,2.0418,2.0155,2.526,3.3432.4967,1.505.4023,3.1089.4089,4.6704.0209,1.5621-.1498,3.1797-.8842,4.5837-.2706.5862-.7212,1.0593-1.1516,1.5303-.6674.6263-1.4298,1.1741-2.2954,1.4886-.4633.1608-.9347.3101-1.4222.3738-.1702.022-.3387.0554-.505.0944-.0285,1.3025-.2706,2.6291-.9161,3.7769-.3227.584-.7646,1.0906-1.2405,1.5544-1.1411,1.0303-2.6429,1.6565-4.1808,1.7207-1.2438.0357-2.4881.0022-3.7318.0154-.8749.0005-1.7504.0093-2.6248-.0071-1.044-.0637-2.0962-.3024-3.0106-.8244-1.0253-.5818-1.8838-1.4545-2.4491-2.4892-.4803-.8085-.6812-1.7471-.7981-2.6698-.0554-.3551.0044-.7168-.0549-1.0714-.8069-.1564-1.6307-.2991-2.3761-.662-.5368-.2338-1.0478-.5346-1.4858-.926-.6762-.6164-1.2657-1.3349-1.6878-2.1494-.3716-.8162-.5846-1.6971-.6861-2.5852-.073-.747-.0423-1.4984-.0516-2.2471.0049-.8414-.0214-1.6845.0521-2.5238.1691-1.8794,1.1236-3.7104,2.6582-4.8324,1.0028-.7948,2.2833-1.1329,3.531-1.2926.1389-.9227.2289-1.8635.561-2.7428.4539-1.0813,1.1894-2.0501,2.1395-2.7428C9.947.5555,11.1782.1262,12.4269.0439Zm.2388,1.6966c-1.0308.0099-2.0709.359-2.8476,1.0473-.3387.2635-.634.5791-.9095.9062-.2113.3343-.3886.6899-.5461,1.0522-.2849.6537-.3617,1.37-.4007,2.0748-.0093.4051.0247.8145-.0357,1.2169-.0203.1976-.2157.3233-.3957.3573-.4303.0121-.8601.0483-1.291.0659-.6444.0961-1.2965.2454-1.8667.5725-.9073.5033-1.6917,1.2635-2.1352,2.2098-.3222.6954-.4885,1.4567-.5308,2.2197-.0071,1.1713.006,2.3432.0011,3.5145-.0148.5922.1037,1.1779.2558,1.7471.2174.8777.73,1.6648,1.3876,2.2773.5039.4517,1.1186.7542,1.7416,1.005.4309.1669.8892.2492,1.3475.2915.3634.0648.735.0192,1.0989.0736.1943.0313.4161.1691.4166.3881.0247,1.011.006,2.0314.208,3.0271.1526.663.438,1.297.8749,1.8223.6872.8689,1.718,1.4145,2.79,1.6423.4331.0681.8727.095,1.3107.0961,1.1126-.0527,2.2285-.0527,3.3427-.0439.6971.0143,1.3964-.0148,2.0912.0423.7805-.0159,1.5786-.1284,2.2833-.4819.4633-.2245.9106-.4956,1.2696-.8694.8667-.8365,1.3376-2.027,1.4342-3.2154.1158-.6669-.0005-1.3492.0884-2.0182.0664-.1987.2421-.3985.4698-.3831,1.2251-.0972,2.5325-.2168,3.56-.9611.7712-.573,1.4117-1.3481,1.746-2.2554.4748-1.0835.4182-2.2905.4139-3.4459-.011-.7317.0401-1.465-.0115-2.1955-.0428-.9035-.2086-1.8305-.6784-2.616-.5181-.8365-1.2509-1.5457-2.128-1.9974-.4523-.1921-.9304-.3216-1.4139-.4056-.5198-.0977-1.0522-.0719-1.5764-.1208-.2289-.0269-.3524-.2552-.3848-.4611-.0746-.5149.0038-1.039-.0746-1.5533-.0664-.9177-.3732-1.813-.8327-2.6077-.8585-1.2613-2.3734-2.0084-3.8883-2.0199-1.2816-.0005-2.5627.0038-3.8444.0022-.78-.0011-1.5599-.0274-2.3399,0Z" style="fill:#fff; stroke-width:0px;"/><path d="m11.2462,4.0513c.55-.3875,1.2169-.601,1.8898-.6087.2443-.0263.488-.0456.7311.0027,1.1109.0198,2.2235.0126,3.3339-.0357.668-.0033,1.3453-.0033,2.0007.1411.5741.1405,1.1236.4095,1.5632.8085.7174.735,1.0566,1.7778,1.0341,2.7944-.0231.3683.0785.7805-.1422,1.1065-.1641.23-.477.1905-.724.2025-.8266.0648-1.6593-.0252-2.4853.0461-.0467.2245-.017.4523.0082.6773.0049.3452-.0077.6916.0192,1.0363,1.8805-.0176,3.7615-.0038,5.642-.0077.6526-.0203,1.3195.0774,1.9189.3452.6175.3118,1.2053.7492,1.5402,1.3684.3458.6202.5582,1.3206.5774,2.0325.0242.7311.0055,1.4628.0093,2.1939-.0022.7366-.022,1.5023-.3299,2.1846-.1416.3436-.3041.6932-.5846.9468-.4166.4408-.9062.8409-1.4984,1.0127-.6021.2415-1.2641.2668-1.9024.2179-.2053-.1389-.2393-.4073-.2832-.6329-.0242-.2711-.017-.545-.0181-.8173-.5549-.0258-1.1109-.0093-1.6659-.0143.006.6263.0236,1.2542-.0181,1.8794.0126.2185-.2443.3293-.4309.3194-.3041-.0055-.6115.0187-.9133-.0269-.1504-.0412-.3721-.1098-.3716-.2991-.0406-1.0593-.0203-2.1203-.0049-3.1802.0417-.1992.1652-.4539.4051-.4462,1.0072-.0132,2.0144-.0055,3.0216-.0038.3238.0011.6532-.0093.9699.0719.1208.0335.2316.1054.2947.2163.1894.2909.2596.6351.3837.9551.4825-.258.9177-.6729,1.0588-1.2169.0955-.2969.0642-.6131.1098-.9177.0296-.4298.0115-.8612.0159-1.2915-.0093-.533.0428-1.0807-.1262-1.5961-.18-.6899-.7734-1.2871-1.4952-1.3711-1.5929-.0258-3.1857-.028-4.7791-.0302-.8392-.0071-1.6801.045-2.5188-.0011-.2322-.0472-.5132-.0258-.6817-.2223-.0993-.0845-.0939-.2256-.1021-.3436-.0412-1.2811-.0192-2.5627-.0242-3.8438-.0198-.3354.1037-.7229.4215-.8804.4111-.0999.8392-.0494,1.258-.062.5033-.0143,1.0099.0302,1.51-.0258.0104-.741-.646-1.4496-1.4002-1.4227-1.482-.0038-2.964.0252-4.4454-.0011-.365.0044-.7328-.0192-1.0956.0247-.2684.0626-.522.196-.7289.3765-.2547.2816-.4199.6499-.4298,1.0319.8777.0395,1.7592-.0258,2.6346.0664.2201.0252.4665.1262.5275.3628.0812.4265.0554.8645.0598,1.2965-.0011,2.0858.006,4.171-.0049,6.2562-.0049.2684.0044.5988-.247.7668-.2212.1191-.483.0922-.7251.1219-2.156.0423-4.3126.0395-6.4686.0357-.2228-.0082-.4858.0192-.6537-.1592-.1938-.2651-.1405-.6147-.1273-.9221.0708-.2272.0011-.5242.2141-.6856.1054-.1015.2651-.0845.4001-.0972,1.6845.0066,3.3685-.0115,5.053-.0055.269-.0071.5434.0143.8058-.0571-.0093-1.7312.0011-3.4634.0011-5.1952-.6329-.0609-1.2701-.0296-1.9046-.0587-.4655-.0467-.9863.0878-1.3964-.2009-.1619-.2673-.0867-.6005-.1169-.898-.039-.3431.0593-.6773.0889-1.0165.1048-.9057.5703-1.7954,1.3426-2.3037Z" style="fill:#fff; stroke-width:0px;"/><path d="m95.4332,5.0256c.5187-.4956,1.2767-.5906,1.9617-.6296.5621.0472,1.1483.0637,1.6653.3178.2091.1125.3908.2832.5033.494.0719.2152.0543.4479.067.6718.9188-.0033,1.8377.0066,2.757.0033.4737.0159.9485-.0445,1.4216-.0038-.0011.4084-.0741.8118-.0703,1.2207-.0472.3178-.1015.6466-.2547.9331-.247.241-.5884.3787-.9304.4034-.9946-.0121-1.976-.2475-2.9722-.1987-.022.2706-.0456.5434.0044.8123.9155-.0176,1.8311.0033,2.7466-.0077.3227.0115.651-.0357.9693.0357-.1553.5533-.1564,1.1307-.2393,1.6955-.0461.3365-.3524.5588-.6455.6762-.6147.0768-1.2289-.0571-1.8426-.0796-.3875-.0225-.7767-.0104-1.1631-.0439-.0093.2739-.0697.5434-.0582.8184,1.432-.0296,2.8668.1301,4.2966.0005.0878-.0049.1778-.0027.2684,0-.0796.5944-.0565,1.2015-.1883,1.7894-.0999.2849-.3008.5423-.5577.7004-.5933.3123-1.2794.1455-1.9129.1015-.8469-.1208-1.7037-.0576-2.555-.0906-.3376.4633-.5659,1.0006-.9545,1.4271-.2657.3529-.5895.6548-.9024.9644-.1471.1444-.3326.2393-.4825.3793.129.095.2838.1509.4369.1949.3266.0066.6532-.0176.9798-.0406,1.0934-.0055,2.1873.0104,3.2807-.0307-.0181-.1581-.0104-.3266-.0801-.472-.107-.146-.2382-.2722-.3409-.4215.2492-.2904.6115-.4429.9666-.561.6971-.219,1.4518-.2058,2.1577-.0335.3502.101.6784.2777.9638.5039.2832.2492.3771.6394.32,1.0028,1.3261-.0269,2.6527.0236,3.9799.0126.3853-.0126.7887.0472,1.1554-.1087.3601-.0988.7075-.3052,1.0939-.2475.5681.101,1.112.3584,1.5358.7531.2327.2157.4073.5604.2679.8738-.2739.5791-.3573,1.2333-.3173,1.8684.0011.7273.0406,1.4545.0159,2.1813-.051.5428-.1981,1.1247-.6137,1.5072-.3496.3952-.8557.6065-1.3601.7223-.5544.1142-1.1472.1378-1.6862-.0576-.4934-.1921-.9122-.5461-1.218-.9754-.3584-.5-.7959-.9358-1.1713-1.4222.2245-.0862.4693-.0494.7053-.0527.3277-.0022.6592.0115.9847-.0423.2245-.0154.3639-.2239.466-.4023.1745-.3107.1235-.6801.0785-1.0171-.0159-.2212-.0049-.4429-.0005-.6647-.8755-.0291-1.7515-.0071-2.6264-.0181-.455.0049-.91-.0263-1.3634.0099.0082,1.1027.0313,2.2049.0318,3.3081.0505.5044.0692,1.0231-.0582,1.5182-.1444.3881-.5736.5209-.926.6521-.6674.213-1.381.2344-2.0759.2119-.3129-.0126-.662-.1224-.808-.4243-.2909-.4122-.2234-.938-.1531-1.4068.0077-.4781.0714-.9523.0681-1.4309.0088-.8085.0011-1.617.006-2.425-.8387-.0302-1.6774.0022-2.5155-.0016-.4517-.0077-.9018.0258-1.3508.0659-.006,1.117.0049,2.2345.0181,3.3509-.006.3002-.0977.6482-.3771.8069-.4375.2503-.9353.3743-1.432.4358-.4473.073-.9057.1065-1.3563.0543-.2563-.0285-.5094-.1553-.6444-.3815-.2124-.421-.1767-.904-.146-1.3596.0889-.8925.0851-1.7916.09-2.6879-.0104-.6312.0598-1.2668-.0401-1.8931-.0928-.2481-.3079-.4347-.3941-.6867.0834-.208.298-.3392.4451-.5055-.494-.2827-1.0066-.5308-1.5061-.8025.848-.7086,1.8245-1.2866,2.4958-2.1862-.837-.0829-1.6735.2503-2.5067.0944-.4012-.2821-.6131-.7855-.6054-1.2679.0203-.4462.1592-.8826.376-1.2718.0538-.0977.1153-.2174.2382-.2382.2174.034.3886.196.6054.2322.5879.0472,1.1719-.0659,1.7597-.0604.4825-.0302.9655-.0489,1.449-.067.0675-.2613.0834-.5319.1306-.797-.6394.0071-1.2762.0955-1.9107.1625-.4572.0181-.9578.0862-1.3684-.1636-.2931-.1833-.3968-.5423-.4012-.87.0313-.4869.1268-.9918.4336-1.3859.0922-.0796.2075-.1658.3343-.1658.0719.0571.1208.1361.1762.2097.9265-.0335,1.8541-.0379,2.7812-.0703.0099-.2635.0055-.5269.0302-.7898-.2887-.0005-.5796-.0242-.8656.0187-.4655.0549-.9358.0543-1.3991.1279-.2937.0176-.5884.0016-.8799.039-.2333.0285-.4534-.0763-.6554-.1767-.3337-.208-.4276-.6224-.455-.988-.0296-.354.1367-.6806.2711-.9968.0851-.1855.1603-.4012.3518-.5044.1872-.0181.3002.1943.488.1713.7503-.0005,1.5006.0038,2.2515-.0187.2761-.0132.5566.0093.8299-.0489-.0472-.1438-.0796-.2969-.1663-.4232-.0966-.0884-.2212-.1389-.3134-.2316-.039-.0873.0532-.1339.1059-.1855Z" style="fill:#fff; stroke-width:0px;"/><path d="m46.7144,4.7813c.5099-.2075,1.0582-.314,1.6082-.3244.5302.0258,1.0544.1394,1.55.3304.3507.1422.6872.3743.8552.724.1043.2025.1037.4358.0895.6581-.0543.629-.0664,1.263-.0467,1.8942.3167.0362.6367.0088.9551.0176,1.1521.0263,2.3053.0225,3.4563.0779,1.4397.0165,2.891.1866,4.3208-.0637.2212-.0291.4506-.0697.6702-.0066.0099.258-.0922.4995-.1356.7503-.1433.5807-.1872,1.1795-.3063,1.7652-.146.7163-.7876,1.308-1.5264,1.3415-.7975-.0247-1.5835-.1663-2.3684-.2975-.6916-.0867-1.3865-.1553-2.0836-.1778-.9951-.0993-1.9974-.0258-2.9947-.0818.0159,1.0368-.006,2.0742.0038,3.1116,1.1378-.0132,2.2762.0104,3.414-.0099.5105-.0055.9073-.3859,1.4013-.4611.286-.0423.59-.0741.8661.0351.5621.1713,1.1329.4539,1.4661.9578.1295.2119.2706.4753.1504.7234-.1487.3277-.3216.6515-.3623,1.0154-.0648.6186-.045,1.2421-.0472,1.8635-.0005.8601-.0016,1.7202.0154,2.5803.0165.7157-.0099,1.4337.0626,2.1467.0291.4627.0384.9282.0093,1.3909-.0527.5198-.4929.8947-.9485,1.0829-.6768.298-1.4326.3194-2.1577.2569-.3365-.0368-.6888-.1262-.9326-.376-.1131-.0922-.1378-.241-.1713-.3738-.6367-.0324-1.2745-.0077-1.9118-.0159-1.2443-.0011-2.4886-.0033-3.7324-.0033-1.3179.0055-2.6363-.0242-3.953.0445-.1361.0038-.2717.0016-.4067.0016-.1603.2437-.4051.4314-.691.4995-.7514.1844-1.5292.2624-2.3026.2437-.2772-.0022-.5659-.0472-.8063-.191-.2152-.2141-.3705-.5017-.3897-.8085-.0604-.5664.028-1.1356.0812-1.6988.0027-.5873.0263-1.1741.0346-1.7614.0071-1.9002.0741-3.8027-.0307-5.7012-.0044-.3266-.3452-.4907-.449-.7767-.0049-.0785.0472-.1433.0829-.208.2684-.449.758-.7311,1.2602-.8392.5379-.1444,1.1033-.0796,1.6445.011.4045.0598.7898.2058,1.1647.365.1839.0999.393.0099.59.028.9402-.0417,1.8821-.0082,2.8229-.028.0258-1.0242-.0077-2.0495.0291-3.0732-.5132-.0115-1.0259-.0005-1.5385-.0005-1.1697.0851-2.3454.1081-3.5079.2772-.9402.0911-1.8629.3079-2.802.4095-.2997-.0115-.5988-.0977-.859-.2464-.3584-.2821-.6169-.7015-.6768-1.1565-.1306-.6191.0252-1.2471.2223-1.8338.1262-.2821.2234-.6054.4726-.8069.1246-.1153.3068-.0499.4583-.051.084.0834.1372.2305.2744.2333.528.0812,1.0643.0406,1.5956.0269.6186-.0587,1.2416-.0379,1.8618-.0823.7042-.0011,1.4068-.0686,2.1115-.0659.7734-.0269,1.5473-.0505,2.3218-.045-.017-.6416.045-1.2926-.0768-1.9271-.0796-.3387-.4622-.4023-.6543-.6471.2042-.359.5829-.561.9468-.7234Zm-3.1319,13.1199c.0291,1.3837.0027,2.768.0176,4.1517,2.5622-.0176,5.1244-.0038,7.6865-.0071.7454-.0088,1.4919.0137,2.2367-.0274.0093-1.3931-.0033-2.7867.0077-4.1797-.5818-.0521-1.1675.0022-1.7498-.0445-1.6834-.0027-3.3674-.0077-5.0508-.0005-1.0478.0746-2.1022-.0027-3.1478.1076Z" style="fill:#fff; stroke-width:0px;"/><path d="m69.3926,4.5349c.2525-.0648.5061.0187.758.0456.3908.0549.7909.1822,1.0676.4792.3008.2541.3694.6751.342,1.0484-.0587.5291-.0236,1.0626-.0346,1.594.0071.4978-.0159.9962.0121,1.4941.3749.0126.7536-.0176,1.1269.0346.1718.0203.2102.2036.2443.3441.0752.4792.0121.9677.0725,1.4485.1658-.2322.2486-.5055.3354-.7734.1992-.4775.3167-.9825.4413-1.4831.1186-.5994.2448-1.1999.2947-1.8097.0675-.2585.0467-.5286.0439-.7931.0176-.2629-.2755-.3787-.3656-.6021.0725-.1734.1438-.359.298-.4775.3491-.2794.803-.387,1.2416-.4155.6202-.0329,1.2783.0571,1.8036.41.2618.1811.5072.472.4649.8118-.0483.5006-.1932.9852-.2942,1.4765,2.1428-.0181,4.2868.0115,6.4302-.0143.4655.0077.8969-.1806,1.3398-.2942.5-.1317,1.0248.0489,1.4408.3288.3612.2366.6856.5725.8047.9968.0845.432-.2915.7668-.3112,1.1845-.0873.4331-.0505.8766-.0609,1.3157-.0176,3.7143-.0088,7.4291.0093,11.1434-.0192.7476.0538,1.5171-.1729,2.2411-.241.8617-1.0517,1.4869-1.9161,1.6335-.3365.0703-.6817.0494-1.022.0395-.5593-.0478-1.0259-.4281-1.3684-.848-.3227-.4353-.5741-.9194-.8925-1.3585-.2327-.365-.5406-.6696-.8063-1.0083.5681-.0532,1.1296.1037,1.6971.0456.2443-.0088.5088-.0895.6548-.2991.1707-.2388.1734-.545.1949-.8261.0143-.9896.0088-1.9787.011-2.9684.0532-1.3343.0362-2.6709.056-4.0063-.0077-1.3492.0461-2.6978.0494-4.0469-.1866-.0154-.3738-.0258-.5599-.0154.0192.7146-.0198,1.4309-.0977,2.1417-.039.6054-.1142,1.2081-.2031,1.808-.0714.5895-.1652,1.1763-.2843,1.7581-.2157,1.2767-.5264,2.5358-.8881,3.7785-.2014.589-.4237,1.1713-.6674,1.7443-.18.3524-.3074.7317-.5291,1.0615-.5236.9309-1.056,1.9205-1.9546,2.5441-.7986.4397-1.9057.1778-2.4337-.5637-.2668-.3458-.6071-.623-.8974-.9474.2464-.3705.6126-.6383.9046-.9704.8508-.9254,1.527-1.999,2.0814-3.1242.4172-.9336.8321-1.8744,1.0983-2.8646.5922-2.0676.9616-4.1979,1.134-6.3407-.2997-.0285-.6005-.0176-.9002-.011.0137.5225-.0785,1.0385-.1405,1.5555-.2492,2.0138-.7229,4.0129-1.5528,5.8703-.2163.4128-.3782.8513-.6082,1.2575-.247.4342-.5176.8574-.8414,1.2383-.2893.337-.6449.6378-1.072.7789-.4237.0906-.8277-.1317-1.1768-.3447-.5472-.3288-.8639-.921-1.3936-1.2701.3754-.3941.7651-.7772,1.1137-1.1966.2942-.354.5434-.7432.7882-1.1329.2865-.511.5851-1.0176.7997-1.5649.4923-1.1153.8239-2.2927,1.1148-3.4739.1411-.5555.185-1.1334.359-1.6807-.118-.0258-.2448-.0961-.3639-.0516-.0933.168-.118.3617-.1839.5401-.1367.4353-.3491.8392-.5791,1.2317-.1696.3584-.4912.6329-.859.7723-.449.0664-.9035-.1048-1.2454-.3914-.1608-.1372-.3282-.2668-.4874-.4051-.4336.1389-.8958.1674-1.347.1213.0521,1.2339-.0071,2.47.0302,3.7039.6016-.213,1.2284-.3584,1.8596-.4506-.022.6318.0165,1.2657-.0626,1.8947-.0066.3793-.1257.7975-.4649,1.0094-.4172.2382-.8826.3826-1.2981.6219-.1301.0609-.0609.2207-.056.3299.0631.2437-.0011.4907.0115.7377.0137,1.0978-.0236,2.1961.0472,3.2922.0296.5511.135,1.123-.0307,1.6626-.2064.4945-.7591.6877-1.2449.7827-.6219.0988-1.286.2113-1.8909-.0269-.3227-.298-.432-.7778-.3968-1.2042.0582-.3985.0351-.803.0834-1.2026.0428-.3496.0225-.7026.0307-1.0533.0582-.7371-.0132-1.4798.0543-2.2164-.5851.0911-1.1214.3656-1.6928.5116-.3952.0928-.8266.2443-1.2218.0752-.2717-.1542-.539-.3524-.6762-.6416-.4106-.8469-.4408-1.8453-.1916-2.7417.3688-.0022.7404.0198,1.1065-.0478.6746-.1224,1.3513-.2393,2.0199-.3957.2108-.051.4342-.0692.6296-.1718.011-1.5045-.0115-3.0101.034-4.514-.3579-.0066-.7146.0088-1.0714.0077-.0642.5955-.1707,1.1878-.3304,1.7658-.1378.4781-.3496.96-.7333,1.2915-.101.0834-.2102.1723-.3436.1899-.4962.0549-1.0423-.0022-1.4425-.3282-.2322-.1597-.4166-.3732-.6016-.5829.2322-.5692.466-1.1433.5692-1.7526.1811-1.0533.3052-2.1159.4117-3.1786.0165-.7328.1323-1.4677.0225-2.1988.0247-.1883-.1927-.2695-.2113-.4451-.0428-.1476.0527-.2893.1471-.3946.2481-.2536.623-.2849.9551-.3381.5286-.0807,1.0835-.0499,1.5874.1367.3343.1158.5044.4847.4819.8211-.0346.595-.1197,1.1889-.0993,1.7866.2058-.0198.4117-.0379.6191-.0499.0538-.32.0291-.6455.0368-.9682-.0082-.7015.0615-1.4079-.0302-2.1055-.1433-.2871-.4885-.4973-.4945-.837.4287-.4962,1.1076-.6449,1.7306-.7185Z" style="fill:#fff; stroke-width:0px;"/><path d="m111.4584,5.2511c.3535-.0434.7075-.2124,1.0665-.1109.4397.1306.7509.4907,1.0462.8206.2766.3661.6153.7229.6971,1.1916-.0181.1422-.1411.2421-.2212.3529-.477.5588-.7306,1.2635-1.1763,1.8442-.1734.2135-.2827.4726-.4841.6636.2821.3156.6296.5659.8941.8996.8277.9304,1.078,2.3492.5851,3.498-.1965.4457-.522.8299-.9402,1.0818-.6356.427-1.4265.5632-2.1796.5181-.2827-.039-.5906-.067-.8173-.2585-.4078-.3041-.5774-.8091-.9095-1.1806-.1844-.2344-.3996-.4424-.6351-.6252-.0982-.0571-.0812-.1762-.0851-.2711.4303-.0478.8656.0181,1.2954-.0521.3222-.0434.702-.0346.9336-.303.2119-.2102.2058-.5346.1575-.8074-.0982-.4237-.4199-.7355-.7157-1.0319-.3496-.3299-.7097-.6532-1.117-.9111-.0703-.0604-.2228-.1076-.1641-.2256.1575-.309.4089-.5549.6082-.8359.3798-.5006.6532-1.0709.9419-1.6269-.696-.09-1.3975.0999-2.0923-.0121-.0269.4468-.0247.8952-.0379,1.3426-.0845.9419.0472,1.8838.0324,2.8262-.0071.7865-.0126,1.5731-.0121,2.3602-.006.371.034.7525-.0834,1.112-.0642.1839-.1422.3908-.3238.488-.517.3035-1.1274.3518-1.7109.3979-.387.0176-.7783-.0499-1.1367-.1949-.1965-.0812-.2624-.2997-.2975-.4902-.067-.6543-.0176-1.3129-.011-1.9688.0088-2.1417.0022-4.2835.0044-6.4252-.0077-.2311.0082-.4682-.0532-.6927-.1433-.2404-.2662-.4918-.4034-.7361.1965-.4089.6499-.6021,1.0747-.6691.197-.0203.3941-.0763.595-.0472,1.4963.1729,3.0046.1197,4.5085.129.3892-.0055.7822.0302,1.1669-.0499Z" style="fill:#fff; stroke-width:0px;"/><path d="m4.8517,10.9941c.7794-.6268,1.8228-.8085,2.7988-.7827,1.19.0055,2.3805-.0044,3.5705-.0005.2349-.0324.3634.2196.4117.4111.0302.3249.0082.6532.0121.9792.0044.2437-.2135.4578-.4556.4638-.9227.0434-1.8486-.0176-2.7708.0428-.494.0126-.9891,0-1.4825.0335-.4204.0461-.8338.2179-1.1433.5088-.2239.2519-.4193.545-.4923.8788-.1564.5873-.1455,1.1999-.1498,1.8025.006.6905-.0461,1.3964.1531,2.0671.0972.3535.3568.6257.612.8749.1372.1273.314.197.4819.2739.1811-.2525.1328-.601.3266-.848.1669-.2185.4133-.4188.7037-.4034,1.1362-.0071,2.2718-.0252,3.408-.0016.2388.0022.522.0626.6466.2904.0834.1295.079.2876.0796.4364-.0038,1.0012.0022,2.0023-.0269,3.0035-.1147.0889-.2322.1949-.3804.2179-.4451.0247-.8996.0214-1.325-.129-.0269-.6861-.056-1.3733-.0439-2.0605-.5714-.0181-1.1428-.0121-1.7142-.0055-.0066.3173-.0005.6345-.006.9518.0033.1888-.095.3881-.2766.4616-.2728.1054-.5719.067-.8574.0598-.6938-.0576-1.4046-.2163-1.9842-.6191-.6685-.4852-1.1883-1.1905-1.4013-1.993-.1372-.4622-.1444-.9463-.1877-1.4222-.0027-.9529-.0071-1.9063.0565-2.8569.1378-1.0072.5988-2.0237,1.437-2.6352Z" style="fill:#fff; stroke-width:0px;"/><path d="m16.7499,14.0278c.1471-.18.3875-.2454.612-.2421,2.2707.0082,4.5409.0016,6.8116.0005.1844.0093.4369-.011.5247.1938.1444.3524.1306.7454.0944,1.1175-.0302.1778-.0532.4182-.2618.4742-.3123.0867-.6416.0703-.9627.0801-1.5918-.0022-3.1835.006-4.7758-.0022-.1142-.0005-.2289.006-.3425.0176-.0571.9117-.0033,1.8261-.0022,2.7389.0038.1778-.0796.3688-.2486.4457-.3101.152-.6663.0736-.9979.0928-.7322.0362-1.4661.0038-2.1983.0258-.0384,1.4902-.0066,2.9815-.0242,4.4717-.0088.2519-.0137.5066-.0675.7542-.0972.2179-.3496.2942-.567.3277-.8436.0939-1.6939.0494-2.5408.0697.0126.1987.0209.404.0944.5917.2876.4589.8222.7119,1.3557.7218,1.7185.0148,3.4376.0044,5.1562.0055.4698-.0154.9578-.2261,1.2185-.6307.1438-.1998.1927-.4451.2635-.6757-.1268-.0181-.2541-.0351-.3826-.0373-.7695-.0088-1.5407.0423-2.3091-.0121-.2163.0011-.3491-.2009-.4539-.3623-.0686-.2783-.0593-.5681-.0686-.8524-.0093-.7629-.0285-1.527.0066-2.2894.017-.1894.0313-.4243.2239-.5225.3881-.0489.7844-.0395,1.1746-.0154.2228-.0044.3431.2256.3699.4172-.0082.6208-.0527,1.246.0148,1.8651.9441.0807,1.8953.0082,2.8416.0494.1696.0423.3842.0895.4506.2755.0664.2135.0307.4419.0401.662.0187.7547-.1076,1.527-.4539,2.2038-.1471.3167-.3859.5758-.6087.8392-.191.2228-.4484.3743-.7141.4912-.4858.2393-1.0143.4095-1.5594.4298-.5302.0214-1.061-.0005-1.5912-.0038-1.2086-.0176-2.4173.0192-3.6259.0192-.5522-.0274-1.1263-.0999-1.6099-.3881-.3914-.2124-.7646-.4748-1.0467-.8228-.264-.3804-.4967-.792-.6093-1.2449-.1647-.6949-.2086-1.415-.1498-2.1264.0779-.2371.342-.3068.5615-.3387.9309-.0274,1.8651.0291,2.7944-.0543.0357-1.4606.0445-2.9217.0252-4.3828.0005-.2596-.0115-.5214.022-.7794.0565-.18.1718-.4155.393-.4045,1.0023-.0428,2.0056-.0242,3.0084-.0302.079-.4325.0489-.8738.056-1.3107-.0038-.4029.0104-.8058.0044-1.2081.0005-.2157-.0077-.4364.0543-.6449Z" style="fill:#fff; stroke-width:0px;"/></g></svg>