<?xml version="1.0" encoding="UTF-8"?><svg id="_图层_2" xmlns="http://www.w3.org/2000/svg" viewBox="0 0 31.5564 31.0761"><g id="_图层_1-2"><path d="m12.4269.0439c.1449-.0143.2887-.0434.4353-.0406,1.8305-.0022,3.661.0088,5.491-.0027,1.3129-.0143,2.6582.2536,3.7856.9518.5643.3935,1.1675.7662,1.5764,1.3343.8453.9545,1.3201,2.1867,1.4886,3.4404.073.3392.0642.6949.1866,1.0231.5269.1076,1.061.1855,1.5736.3546.589.1877,1.1378.4803,1.6543.8167,1.2092.7673,2.0418,2.0155,2.526,3.3432.4967,1.505.4023,3.1089.4089,4.6704.0209,1.5621-.1498,3.1797-.8842,4.5837-.2706.5862-.7212,1.0593-1.1516,1.5303-.6674.6263-1.4298,1.1741-2.2954,1.4886-.4633.1608-.9347.3101-1.4222.3738-.1702.022-.3387.0554-.505.0944-.0285,1.3025-.2706,2.6291-.9161,3.7769-.3227.584-.7646,1.0906-1.2405,1.5544-1.1411,1.0303-2.6429,1.6565-4.1808,1.7207-1.2438.0357-2.4881.0022-3.7318.0154-.8749.0005-1.7504.0093-2.6248-.0071-1.044-.0637-2.0962-.3024-3.0106-.8244-1.0253-.5818-1.8838-1.4545-2.4491-2.4892-.4803-.8085-.6812-1.7471-.7981-2.6698-.0554-.3551.0044-.7168-.0549-1.0714-.8069-.1564-1.6307-.2991-2.3761-.662-.5368-.2338-1.0478-.5346-1.4858-.926-.6762-.6164-1.2657-1.3349-1.6878-2.1494-.3716-.8162-.5846-1.6971-.6861-2.5852-.073-.747-.0423-1.4984-.0516-2.2471.0049-.8414-.0214-1.6845.0521-2.5238.1691-1.8794,1.1236-3.7104,2.6582-4.8324,1.0028-.7948,2.2833-1.1329,3.531-1.2926.1389-.9227.2289-1.8635.561-2.7428.4539-1.0813,1.1894-2.0501,2.1395-2.7428C9.947.5555,11.1782.1262,12.4269.0439Zm.2388,1.6966c-1.0308.0099-2.0709.359-2.8476,1.0473-.3387.2635-.634.5791-.9095.9062-.2113.3343-.3886.6899-.5461,1.0522-.2849.6537-.3617,1.37-.4007,2.0748-.0093.4051.0247.8145-.0357,1.2169-.0203.1976-.2157.3233-.3957.3573-.4303.0121-.8601.0483-1.291.0659-.6444.0961-1.2965.2454-1.8667.5725-.9073.5033-1.6917,1.2635-2.1352,2.2098-.3222.6954-.4885,1.4567-.5308,2.2197-.0071,1.1713.006,2.3432.0011,3.5145-.0148.5922.1037,1.1779.2558,1.7471.2174.8777.73,1.6648,1.3876,2.2773.5039.4517,1.1186.7542,1.7416,1.005.4309.1669.8892.2492,1.3475.2915.3634.0648.735.0192,1.0989.0736.1943.0313.4161.1691.4166.3881.0247,1.011.006,2.0314.208,3.0271.1526.663.438,1.297.8749,1.8223.6872.8689,1.718,1.4145,2.79,1.6423.4331.0681.8727.095,1.3107.0961,1.1126-.0527,2.2285-.0527,3.3427-.0439.6971.0143,1.3964-.0148,2.0912.0423.7805-.0159,1.5786-.1284,2.2833-.4819.4633-.2245.9106-.4956,1.2696-.8694.8667-.8365,1.3376-2.027,1.4342-3.2154.1158-.6669-.0005-1.3492.0884-2.0182.0664-.1987.2421-.3985.4698-.3831,1.2251-.0972,2.5325-.2168,3.56-.9611.7712-.573,1.4117-1.3481,1.746-2.2554.4748-1.0835.4182-2.2905.4139-3.4459-.011-.7317.0401-1.465-.0115-2.1955-.0428-.9035-.2086-1.8305-.6784-2.616-.5181-.8365-1.2509-1.5457-2.128-1.9974-.4523-.1921-.9304-.3216-1.4139-.4056-.5198-.0977-1.0522-.0719-1.5764-.1208-.2289-.0269-.3524-.2552-.3848-.4611-.0746-.5149.0038-1.039-.0746-1.5533-.0664-.9177-.3732-1.813-.8327-2.6077-.8585-1.2613-2.3734-2.0084-3.8883-2.0199-1.2816-.0005-2.5627.0038-3.8444.0022-.78-.0011-1.5599-.0274-2.3399,0Z" style="fill:#fff; stroke-width:0px;"/><path d="m11.2462,4.0513c.55-.3875,1.2169-.601,1.8898-.6087.2443-.0263.488-.0456.7311.0027,1.1109.0198,2.2235.0126,3.3339-.0357.668-.0033,1.3453-.0033,2.0007.1411.5741.1405,1.1236.4095,1.5632.8085.7174.735,1.0566,1.7778,1.0341,2.7944-.0231.3683.0785.7805-.1422,1.1065-.1641.23-.477.1905-.724.2025-.8266.0648-1.6593-.0252-2.4853.0461-.0467.2245-.017.4523.0082.6773.0049.3452-.0077.6916.0192,1.0363,1.8805-.0176,3.7615-.0038,5.642-.0077.6526-.0203,1.3195.0774,1.9189.3452.6175.3118,1.2053.7492,1.5402,1.3684.3458.6202.5582,1.3206.5774,2.0325.0242.7311.0055,1.4628.0093,2.1939-.0022.7366-.022,1.5023-.3299,2.1846-.1416.3436-.3041.6932-.5846.9468-.4166.4408-.9062.8409-1.4984,1.0127-.6021.2415-1.2641.2668-1.9024.2179-.2053-.1389-.2393-.4073-.2832-.6329-.0242-.2711-.017-.545-.0181-.8173-.5549-.0258-1.1109-.0093-1.6659-.0143.006.6263.0236,1.2542-.0181,1.8794.0126.2185-.2443.3293-.4309.3194-.3041-.0055-.6115.0187-.9133-.0269-.1504-.0412-.3721-.1098-.3716-.2991-.0406-1.0593-.0203-2.1203-.0049-3.1802.0417-.1992.1652-.4539.4051-.4462,1.0072-.0132,2.0144-.0055,3.0216-.0038.3238.0011.6532-.0093.9699.0719.1208.0335.2316.1054.2947.2163.1894.2909.2596.6351.3837.9551.4825-.258.9177-.6729,1.0588-1.2169.0955-.2969.0642-.6131.1098-.9177.0296-.4298.0115-.8612.0159-1.2915-.0093-.533.0428-1.0807-.1262-1.5961-.18-.6899-.7734-1.2871-1.4952-1.3711-1.5929-.0258-3.1857-.028-4.7791-.0302-.8392-.0071-1.6801.045-2.5188-.0011-.2322-.0472-.5132-.0258-.6817-.2223-.0993-.0845-.0939-.2256-.1021-.3436-.0412-1.2811-.0192-2.5627-.0242-3.8438-.0198-.3354.1037-.7229.4215-.8804.4111-.0999.8392-.0494,1.258-.062.5033-.0143,1.0099.0302,1.51-.0258.0104-.741-.646-1.4496-1.4002-1.4227-1.482-.0038-2.964.0252-4.4454-.0011-.365.0044-.7328-.0192-1.0956.0247-.2684.0626-.522.196-.7289.3765-.2547.2816-.4199.6499-.4298,1.0319.8777.0395,1.7592-.0258,2.6346.0664.2201.0252.4665.1262.5275.3628.0812.4265.0554.8645.0598,1.2965-.0011,2.0858.006,4.171-.0049,6.2562-.0049.2684.0044.5988-.247.7668-.2212.1191-.483.0922-.7251.1219-2.156.0423-4.3126.0395-6.4686.0357-.2228-.0082-.4858.0192-.6537-.1592-.1938-.2651-.1405-.6147-.1273-.9221.0708-.2272.0011-.5242.2141-.6856.1054-.1015.2651-.0845.4001-.0972,1.6845.0066,3.3685-.0115,5.053-.0055.269-.0071.5434.0143.8058-.0571-.0093-1.7312.0011-3.4634.0011-5.1952-.6329-.0609-1.2701-.0296-1.9046-.0587-.4655-.0467-.9863.0878-1.3964-.2009-.1619-.2673-.0867-.6005-.1169-.898-.039-.3431.0593-.6773.0889-1.0165.1048-.9057.5703-1.7954,1.3426-2.3037Z" style="fill:#fff; stroke-width:0px;"/><path d="m4.8517,10.9941c.7794-.6268,1.8228-.8085,2.7988-.7827,1.19.0055,2.3805-.0044,3.5705-.0005.2349-.0324.3634.2196.4117.4111.0302.3249.0082.6532.0121.9792.0044.2437-.2135.4578-.4556.4638-.9227.0434-1.8486-.0176-2.7708.0428-.494.0126-.9891,0-1.4825.0335-.4204.0461-.8338.2179-1.1433.5088-.2239.2519-.4193.545-.4923.8788-.1564.5873-.1455,1.1999-.1498,1.8025.006.6905-.0461,1.3964.1531,2.0671.0972.3535.3568.6257.612.8749.1372.1273.314.197.4819.2739.1811-.2525.1328-.601.3266-.848.1669-.2185.4133-.4188.7037-.4034,1.1362-.0071,2.2718-.0252,3.408-.0016.2388.0022.522.0626.6466.2904.0834.1295.079.2876.0796.4364-.0038,1.0012.0022,2.0023-.0269,3.0035-.1147.0889-.2322.1949-.3804.2179-.4451.0247-.8996.0214-1.325-.129-.0269-.6861-.056-1.3733-.0439-2.0605-.5714-.0181-1.1428-.0121-1.7142-.0055-.0066.3173-.0005.6345-.006.9518.0033.1888-.095.3881-.2766.4616-.2728.1054-.5719.067-.8574.0598-.6938-.0576-1.4046-.2163-1.9842-.6191-.6685-.4852-1.1883-1.1905-1.4013-1.993-.1372-.4622-.1444-.9463-.1877-1.4222-.0027-.9529-.0071-1.9063.0565-2.8569.1378-1.0072.5988-2.0237,1.437-2.6352Z" style="fill:#fff; stroke-width:0px;"/><path d="m16.7499,14.0278c.1471-.18.3875-.2454.612-.2421,2.2707.0082,4.5409.0016,6.8116.0005.1844.0093.4369-.011.5247.1938.1444.3524.1306.7454.0944,1.1175-.0302.1778-.0532.4182-.2618.4742-.3123.0867-.6416.0703-.9627.0801-1.5918-.0022-3.1835.006-4.7758-.0022-.1142-.0005-.2289.006-.3425.0176-.0571.9117-.0033,1.8261-.0022,2.7389.0038.1778-.0796.3688-.2486.4457-.3101.152-.6663.0736-.9979.0928-.7322.0362-1.4661.0038-2.1983.0258-.0384,1.4902-.0066,2.9815-.0242,4.4717-.0088.2519-.0137.5066-.0675.7542-.0972.2179-.3496.2942-.567.3277-.8436.0939-1.6939.0494-2.5408.0697.0126.1987.0209.404.0944.5917.2876.4589.8222.7119,1.3557.7218,1.7185.0148,3.4376.0044,5.1562.0055.4698-.0154.9578-.2261,1.2185-.6307.1438-.1998.1927-.4451.2635-.6757-.1268-.0181-.2541-.0351-.3826-.0373-.7695-.0088-1.5407.0423-2.3091-.0121-.2163.0011-.3491-.2009-.4539-.3623-.0686-.2783-.0593-.5681-.0686-.8524-.0093-.7629-.0285-1.527.0066-2.2894.017-.1894.0313-.4243.2239-.5225.3881-.0489.7844-.0395,1.1746-.0154.2228-.0044.3431.2256.3699.4172-.0082.6208-.0527,1.246.0148,1.8651.9441.0807,1.8953.0082,2.8416.0494.1696.0423.3842.0895.4506.2755.0664.2135.0307.4419.0401.662.0187.7547-.1076,1.527-.4539,2.2038-.1471.3167-.3859.5758-.6087.8392-.191.2228-.4484.3743-.7141.4912-.4858.2393-1.0143.4095-1.5594.4298-.5302.0214-1.061-.0005-1.5912-.0038-1.2086-.0176-2.4173.0192-3.6259.0192-.5522-.0274-1.1263-.0999-1.6099-.3881-.3914-.2124-.7646-.4748-1.0467-.8228-.264-.3804-.4967-.792-.6093-1.2449-.1647-.6949-.2086-1.415-.1498-2.1264.0779-.2371.342-.3068.5615-.3387.9309-.0274,1.8651.0291,2.7944-.0543.0357-1.4606.0445-2.9217.0252-4.3828.0005-.2596-.0115-.5214.022-.7794.0565-.18.1718-.4155.393-.4045,1.0023-.0428,2.0056-.0242,3.0084-.0302.079-.4325.0489-.8738.056-1.3107-.0038-.4029.0104-.8058.0044-1.2081.0005-.2157-.0077-.4364.0543-.6449Z" style="fill:#fff; stroke-width:0px;"/></g></svg>